HIERARCHY
ROOT hip
{
	OFFSET 0.000000 0.000000 0.000000
	CHANNELS 6 Xposition Yposition Zposition Xrotation Zrotation Yrotation 
	JOINT abdomen
	{
		OFFSET 0.000000 3.422050 0.000000
		CHANNELS 3 Xrotation Zrotation Yrotation 
		JOINT chest
		{
			OFFSET 0.000000 8.486693 -0.684411
			CHANNELS 3 Xrotation Zrotation Yrotation 
			JOINT neck
			{
				OFFSET 0.000000 10.266162 -0.273764
				CHANNELS 3 Xrotation Zrotation Yrotation 
				JOINT head
				{
					OFFSET 0.000000 3.148285 0.000000
					CHANNELS 3 Xrotation Zrotation Yrotation 
					End Site
					{
						OFFSET 0.000000 3.148289 0.000000
					}
				}
			}
			JOINT lCollar
			{
				OFFSET 3.422053 6.707223 -0.821293
				CHANNELS 3 Yrotation Zrotation Xrotation 
				JOINT lShldr
				{
					OFFSET 3.285171 0.000000 0.000000
					CHANNELS 3 Zrotation Yrotation Xrotation 
					JOINT lForeArm
					{
						OFFSET 10.129278 0.000000 0.000000
						CHANNELS 3 Yrotation Zrotation Xrotation 
						JOINT lHand
						{
							OFFSET 8.486692 0.000000 0.000000
							CHANNELS 3 Zrotation Yrotation Xrotation 
							End Site
							{
								OFFSET 4.106464 0.000000 0.000000
							}
						}
					}
				}
			}
			JOINT rCollar
			{
				OFFSET -3.558935 6.707223 -0.821293
				CHANNELS 3 Yrotation Zrotation Xrotation 
				JOINT rShldr
				{
					OFFSET -3.148289 0.000000 0.000000
					CHANNELS 3 Zrotation Yrotation Xrotation 
					JOINT rForeArm
					{
						OFFSET -10.266159 0.000000 0.000000
						CHANNELS 3 Yrotation Zrotation Xrotation 
						JOINT rHand
						{
							OFFSET -8.349810 0.000000 0.000000
							CHANNELS 3 Zrotation Yrotation Xrotation 
							End Site
							{
								OFFSET -4.106464 0.000000 0.000000
							}
						}
					}
				}
			}
		}
	}
	JOINT lThigh
	{
		OFFSET 5.338403 -1.642589 1.368821
		CHANNELS 3 Xrotation Zrotation Yrotation 
		JOINT lShin
		{
			OFFSET -2.053232 -20.121670 0.000000
			CHANNELS 3 Xrotation Zrotation Yrotation 
			JOINT lFoot
			{
				OFFSET 0.000000 -19.300380 -1.231939
				CHANNELS 3 Xrotation Yrotation Zrotation 
				End Site
				{
					OFFSET 0.000000 -2.463878 4.653993
				}
			}
		}
	}
	JOINT rThigh
	{
		OFFSET -5.338403 -1.642589 1.368821
		CHANNELS 3 Xrotation Zrotation Yrotation 
		JOINT rShin
		{
			OFFSET 2.053232 -20.121670 0.000000
			CHANNELS 3 Xrotation Zrotation Yrotation 
			JOINT rFoot
			{
				OFFSET 0.000000 -19.300380 -1.231939
				CHANNELS 3 Xrotation Yrotation Zrotation 
				End Site
				{
					OFFSET 0.000000 -2.463878 4.653993
				}
			}
		}
	}
}
MOTION
Frames: 15
Frame Time: 0.066667
0.000000 43.528500 0.000000 0.000000 0.000000 0.000000 0.000000 0.000000 0.000000 0.000000 0.000000 0.000000 0.000000 0.000000 0.000000 0.000000 0.000000 0.000000 0.000000 0.000000 0.000000 0.000000 0.000000 0.000000 0.000000 0.000000 0.000000 0.000000 0.000000 0.000000 0.000000 0.000000 0.000000 0.000000 0.000000 0.000000 0.000000 0.000000 0.000000 0.000000 0.000000 0.000000 0.000000 0.000000 0.000000 0.000000 0.000000 0.000000 0.000000 0.000000 0.000000 0.000000 0.000000 0.000000 0.000000 0.000000 0.000000 0.000000 0.000000 0.000000 
-0.309380 41.404850 1.054315 0.000000 0.000000 0.000000 2.695356 -0.530654 -0.119170 26.800613 -0.688586 -0.708700 -0.400421 0.000000 0.000000 -0.267537 0.000000 0.000000 -4.198667 -8.044072 -0.840862 -79.562759 -28.385876 43.345749 -29.300661 -1.594087 -26.081894 -7.000325 0.000000 0.000000 4.195101 8.040597 -0.840483 79.555450 28.385365 43.341370 29.296305 1.591622 -26.080914 6.996825 0.000000 0.000000 -12.603165 17.497334 11.507510 23.289953 3.448898 -1.684310 -17.597921 6.624269 -15.686709 -5.044646 -4.426421 -11.203550 22.914631 3.009442 -0.119871 -18.021509 -6.811956 14.851131 
-0.309380 41.404850 1.141851 -0.357103 0.000000 0.000000 3.337488 -0.530424 -0.119177 25.026134 -0.688697 -0.708717 -0.800409 0.000000 0.000000 -0.267537 0.000000 0.000000 -4.323937 -8.503218 0.149687 -79.150688 -28.333515 43.139069 -29.123217 -1.481422 -26.075977 -7.000325 0.000000 0.000000 4.317500 8.480939 0.147484 79.149773 28.332306 43.140163 29.121822 1.477703 -26.076208 6.996825 0.000000 0.000000 -12.078822 17.524853 11.620703 23.289955 3.448898 -1.684310 -17.597921 6.624269 -15.686709 -4.466804 -4.416852 -11.182523 22.914631 3.009442 -0.119871 -18.021511 -6.811956 14.851131 
-0.309380 41.404850 1.229387 -0.714248 0.000000 0.000000 3.979862 -0.530193 -0.119182 23.246485 -0.688808 -0.708730 -1.200455 0.000000 0.000000 -0.267537 0.000000 0.000000 -4.441436 -8.964964 1.141572 -78.738976 -28.279848 42.932899 -28.945778 -1.368735 -26.070400 -7.000325 0.000000 0.000000 4.432462 8.923801 1.136769 78.744461 28.277990 42.939461 28.947350 1.363765 -26.071848 6.996825 0.000000 0.000000 -11.554221 17.551388 11.734196 23.289951 3.448897 -1.684310 -17.597919 6.624269 -15.686707 -3.888789 -4.407492 -11.161392 22.914631 3.009442 -0.119871 -18.021507 -6.811955 14.851130 
-0.309380 41.404850 1.316923 -1.071427 0.000000 0.000000 4.622438 -0.529962 -0.119184 21.462503 -0.688920 -0.708740 -1.600551 0.000000 0.000000 -0.267537 0.000000 0.000000 -4.551071 -9.429097 2.134738 -78.327637 -28.224859 42.727242 -28.768364 -1.256028 -26.065182 -7.000325 0.000000 0.000000 4.539896 9.368972 2.127311 78.339539 28.222422 42.739288 28.772890 1.249812 -26.067835 6.996825 0.000000 0.000000 -11.029394 17.576941 11.847981 23.289953 3.448898 -1.684310 -17.597921 6.624269 -15.686709 -3.310629 -4.398345 -11.140167 22.914631 3.009442 -0.119871 -18.021509 -6.811956 14.851131 
-0.309380 41.404850 1.404460 -1.428634 0.000000 0.000000 5.265176 -0.529731 -0.119183 19.675035 -0.689033 -0.708746 -2.000684 0.000000 0.000000 -0.267537 0.000000 0.000000 -4.652749 -9.895393 3.129133 -77.916733 -28.168575 42.522144 -28.590952 -1.143302 -26.060308 -7.000325 0.000000 0.000000 4.639720 9.816251 3.119051 77.935020 28.165600 42.539654 28.598438 1.135843 -26.064167 6.996825 0.000000 0.000000 -10.504357 17.601498 11.962036 23.289953 3.448898 -1.684310 -17.597921 6.624269 -15.686709 -2.732354 -4.389407 -11.118845 22.914631 3.009442 -0.119871 -18.021511 -6.811957 14.851131 
-0.309380 41.404850 1.491996 -1.785862 0.000000 0.000000 5.908037 -0.529501 -0.119180 17.884949 -0.689146 -0.708749 -2.400849 0.000000 0.000000 -0.267537 0.000000 0.000000 -4.746384 -10.363626 4.124704 -77.506248 -28.110992 42.317604 -28.413561 -1.030559 -26.055788 -7.000325 0.000000 0.000000 4.731848 10.265417 4.111928 77.530907 28.107536 42.340565 28.423992 1.021862 -26.060843 6.996825 0.000000 0.000000 -9.979142 17.625065 12.076357 23.289951 3.448897 -1.684309 -17.597921 6.624269 -15.686709 -2.153993 -4.380683 -11.097426 22.914629 3.009441 -0.119871 -18.021507 -6.811955 14.851130 
-0.309380 41.404850 1.579532 -2.143104 0.000000 0.000000 6.550978 -0.529270 -0.119175 16.093109 -0.689259 -0.708749 -2.801032 0.000000 0.000000 -0.267537 0.000000 0.000000 -4.831896 -10.833571 5.121401 -77.096199 -28.052120 42.113640 -28.236176 -0.917801 -26.051611 -7.000325 0.000000 0.000000 4.816206 10.716257 5.105886 77.127243 28.048239 42.142059 28.249565 0.907868 -26.057875 6.996825 0.000000 0.000000 -9.453768 17.647629 12.190918 23.289953 3.448898 -1.684310 -17.597921 6.624269 -15.686709 -1.575577 -4.372175 -11.075923 22.914629 3.009442 -0.119871 -18.021509 -6.811956 14.851131 
-0.309380 41.404850 1.667068 -2.500352 0.000000 0.000000 7.193957 -0.529039 -0.119166 14.300395 -0.689372 -0.708744 -3.201225 0.000000 0.000000 -0.267537 0.000000 0.000000 -4.909210 -11.304997 6.119176 -76.686615 -27.991959 41.910259 -28.058805 -0.805031 -26.047785 -7.000325 0.000000 0.000000 4.892719 11.168550 6.100867 76.724037 27.987703 41.944134 28.075146 0.793866 -26.055250 6.996825 0.000000 0.000000 -8.928266 17.669193 12.305711 23.289953 3.448898 -1.684310 -17.597921 6.624269 -15.686709 -0.997134 -4.363883 -11.054332 22.914631 3.009442 -0.119871 -18.021509 -6.811956 14.851131 
-0.309380 41.404850 1.754604 -2.857601 0.000000 0.000000 7.836939 -0.528808 -0.119156 12.507677 -0.689484 -0.708737 -3.601418 0.000000 0.000000 -0.267537 0.000000 0.000000 -4.978256 -11.777671 7.117979 -76.277496 -27.930519 41.707493 -27.881449 -0.692248 -26.044312 -7.000325 0.000000 0.000000 4.961329 11.622087 7.096821 76.321289 27.925941 41.746807 27.900730 0.679857 -26.052967 6.996825 0.000000 0.000000 -8.402657 17.689753 12.420723 23.289955 3.448898 -1.684310 -17.597921 6.624269 -15.686709 -0.418694 -4.355811 -11.032659 22.914631 3.009442 -0.119871 -18.021511 -6.811956 14.851133 
-0.309380 41.404850 1.842141 -3.214843 0.000000 0.000000 8.479879 -0.528578 -0.119142 10.715840 -0.689597 -0.708725 -4.001601 0.000000 0.000000 -0.267537 0.000000 0.000000 -5.038972 -12.251365 8.117766 -75.868874 -27.867794 41.505341 -27.704105 -0.579457 -26.041187 -7.000325 0.000000 0.000000 5.021967 12.076634 8.093685 75.919029 27.862959 41.550095 27.726336 0.565841 -26.051041 6.996825 0.000000 0.000000 -7.876969 17.709309 12.535934 23.289953 3.448898 -1.684310 -17.597921 6.624269 -15.686709 0.159713 -4.347955 -11.010905 22.914631 3.009442 -0.119871 -18.021511 -6.811956 14.851131 
-0.309380 41.404850 1.929677 -3.572071 0.000000 0.000000 9.122738 -0.528347 -0.119126 8.925751 -0.689709 -0.708711 -4.401765 0.000000 0.000000 -0.267537 0.000000 0.000000 -5.091299 -12.725842 9.118489 -75.460739 -27.803804 41.303818 -27.526772 -0.466657 -26.038410 -7.000325 0.000000 0.000000 5.074582 12.531977 9.091413 75.517265 27.798765 41.354012 27.551941 0.451822 -26.049454 6.996825 0.000000 0.000000 -7.351222 17.727852 12.651332 23.289953 3.448898 -1.684310 -17.597921 6.624269 -15.686709 0.738057 -4.340320 -10.989076 22.914631 3.009442 -0.119871 -18.021509 -6.811956 14.851131 
-0.309380 41.404850 2.017213 -3.929278 0.000000 0.000000 9.765477 -0.528117 -0.119107 7.138286 -0.689820 -0.708692 -4.801899 0.000000 0.000000 -0.267537 0.000000 0.000000 -5.135182 -13.200868 10.120106 -75.053154 -27.738552 41.102966 -27.349449 -0.353851 -26.035982 -7.000325 0.000000 0.000000 5.119125 12.987887 10.089948 75.116028 27.733358 41.158573 27.377558 0.337800 -26.048218 6.996825 0.000000 0.000000 -6.825445 17.745380 12.766898 23.289955 3.448898 -1.684310 -17.597921 6.624269 -15.686709 1.316310 -4.332908 -10.967176 22.914631 3.009442 -0.119871 -18.021509 -6.811956 14.851131 
-0.309380 41.404850 2.104749 -4.286458 0.000000 0.000000 10.408054 -0.527888 -0.119086 5.354300 -0.689931 -0.708671 -5.201994 0.000000 0.000000 -0.267537 0.000000 0.000000 -5.170578 -13.676206 11.122569 -74.646111 -27.672052 40.902779 -27.172136 -0.241042 -26.033907 -7.000325 0.000000 0.000000 5.155551 13.444150 11.089242 74.715309 27.666750 40.963787 27.203182 0.223780 -26.047327 6.996825 0.000000 0.000000 -6.299665 17.761900 12.882626 23.289951 3.448897 -1.684310 -17.597921 6.624269 -15.686709 1.894441 -4.325716 -10.945204 22.914631 3.009442 -0.119871 -18.021509 -6.811956 14.851131 
-0.309380 41.404850 2.192286 -4.643602 0.000000 0.000000 11.050426 -0.527658 -0.119062 3.574652 -0.690040 -0.708646 -5.602041 0.000000 0.000000 -0.267537 0.000000 0.000000 -5.197441 -14.151619 12.125835 -74.239609 -27.604292 40.703262 -26.994835 -0.128231 -26.032173 -7.000325 0.000000 0.000000 5.183823 13.900530 12.089236 74.315132 27.598946 40.769672 27.028820 0.109760 -26.046787 6.996825 0.000000 0.000000 -5.773906 17.777409 12.998500 23.289951 3.448897 -1.684310 -17.597919 6.624269 -15.686707 2.472421 -4.318748 -10.923168 22.914631 3.009442 -0.119871 -18.021507 -6.811955 14.851130 
